# This file uses centimeters as units for non-parametric coordinates.

mtllib lamp.mtl
g default
v 18.437502 88.353111 -138.841339
v 7.042497 88.353111 -147.120285
v -7.042502 88.353111 -147.120285
v -18.437504 88.353111 -138.841324
v -22.790007 88.353111 -125.445702
v -18.437502 88.353111 -112.050072
v -7.042497 88.353111 -103.771118
v 7.042500 88.353111 -103.771118
v 18.437502 88.353111 -112.050072
v 22.790005 88.353111 -125.445702
v 17.535109 95.395607 -138.185699
v 6.697814 95.395607 -146.059464
v -6.697818 95.395607 -146.059448
v -17.535110 95.395607 -138.185699
v -21.674583 95.395607 -125.445702
v -17.535109 95.395607 -112.705696
v -6.697814 95.395607 -104.831947
v 6.697815 95.395607 -104.831947
v 17.535107 95.395607 -112.705704
v 21.674583 95.395607 -125.445702
v 14.916252 101.748741 -136.282990
v 5.697500 101.748741 -142.980804
v -5.697504 101.748741 -142.980804
v -14.916255 101.748741 -136.282990
v -18.437504 101.748741 -125.445702
v -14.916252 101.748741 -114.608414
v -5.697501 101.748741 -107.910591
v 5.697502 101.748741 -107.910599
v 14.916252 101.748741 -114.608414
v 18.437502 101.748741 -125.445702
v 10.837292 106.790619 -133.319458
v 4.139476 106.790619 -138.185699
v -4.139479 106.790619 -138.185699
v -10.837292 106.790619 -133.319458
v -13.395627 106.790619 -125.445702
v -10.837292 106.790619 -117.571945
v -4.139477 106.790619 -112.705704
v 4.139477 106.790619 -112.705704
v 10.837292 106.790619 -117.571945
v 13.395627 106.790619 -125.445702
v 10.837292 130.312393 -133.319458
v 4.139476 130.312393 -138.185699
v -4.139479 130.312393 -138.185699
v -10.837292 130.312393 -133.319458
v -13.395627 130.312393 -125.445702
v -10.837292 130.312393 -117.571945
v -4.139477 130.312393 -112.705704
v 4.139477 130.312393 -112.705704
v 10.837292 130.312393 -117.571945
v 13.395627 130.312393 -125.445702
v 20.350752 89.119171 -140.231384
v 7.773293 89.119171 -149.369446
v 7.392842 96.892464 -148.198547
v 19.354715 96.892464 -139.507736
v -7.773299 89.119171 -149.369446
v -7.392846 96.892464 -148.198532
v -20.350754 89.119171 -140.231384
v -19.354719 96.892464 -139.507721
v -25.154913 89.119171 -125.445702
v -23.923742 96.892464 -125.445702
v -20.350752 89.119171 -110.660011
v -19.354715 96.892464 -111.383675
v -7.773293 89.119171 -101.521957
v -7.392842 96.892464 -102.692871
v 7.773296 89.119171 -101.521957
v 7.392844 96.892464 -102.692871
v 20.350750 89.119171 -110.660019
v 19.354715 96.892464 -111.383682
v 25.154911 89.119171 -125.445702
v 23.923742 96.892464 -125.445702
v 6.288726 103.904854 -144.800415
v 16.464104 103.904854 -137.407578
v -6.288730 103.904854 -144.800415
v -16.464108 103.904854 -137.407578
v -20.350754 103.904854 -125.445702
v -16.464104 103.904854 -113.483833
v -6.288727 103.904854 -106.090988
v 6.288728 103.904854 -106.090988
v 16.464104 103.904854 -113.483833
v 20.350750 103.904854 -125.445702
v 4.569028 109.469925 -139.507721
v 11.961871 109.469925 -134.136505
v -4.569030 109.469925 -139.507721
v -11.961871 109.469925 -134.136505
v -14.785684 109.469925 -125.445702
v -11.961871 109.469925 -116.754890
v -4.569028 109.469925 -111.383675
v 4.569029 109.469925 -111.383682
v 11.961871 109.469925 -116.754890
v 14.785684 109.469925 -125.445702
v 4.569028 135.432526 -139.507721
v 11.961871 135.432526 -134.136505
v -4.569030 135.432526 -139.507721
v -11.961871 135.432526 -134.136505
v -14.785684 135.432526 -125.445702
v -11.961871 135.432526 -116.754890
v -4.569028 135.432526 -111.383675
v 4.569029 135.432526 -111.383682
v 11.961871 135.432526 -116.754890
v 14.785684 135.432526 -125.445702
v 2.781869 140.260956 -134.007416
v 7.283027 140.260956 -130.737137
v -2.781870 140.260956 -134.007416
v -7.283027 140.260956 -130.737137
v -9.002315 140.260956 -125.445702
v -7.283027 140.260956 -120.154266
v -2.781869 140.260956 -116.883987
v 2.781869 140.260956 -116.883987
v 7.283027 140.260956 -120.154266
v 9.002315 140.260956 -125.445702
v 14.062074 135.003510 -156.019943
v -0.000000 140.828217 -156.019943
v -14.062074 135.003510 -156.019943
v -19.886778 120.941429 -156.019943
v -14.062074 106.879356 -156.019943
v -0.000000 101.054649 -156.019943
v 14.062076 106.879356 -156.019943
v 19.886778 120.941429 -156.019943
v 11.332571 132.274002 -151.582275
v 0.000000 136.968109 -151.582275
v -11.332571 132.274002 -151.582275
v -16.026676 120.941429 -151.582275
v -11.332571 109.608856 -151.582275
v 0.000000 104.914749 -151.582275
v 11.332572 109.608856 -151.582275
v 16.026678 120.941429 -151.582275
v 0.000000 120.941429 -151.582275
v 14.062074 135.003510 -161.465851
v -0.000000 140.828217 -161.465851
v -14.062074 135.003510 -161.465851
v -19.886778 120.941429 -161.465851
v -14.062074 106.879356 -161.465851
v -0.000000 101.054649 -161.465851
v 14.062076 106.879356 -161.465851
v 19.886778 120.941429 -161.465851
v 1.806035 125.224945 -153.152969
v -1.806033 125.224953 -153.152969
v -3.612067 122.096809 -153.152969
v -1.806034 118.968666 -153.152969
v 1.806034 118.968666 -153.152969
v 3.612067 122.096809 -153.152969
v 1.806035 125.224945 -138.581207
v -1.806033 125.224953 -138.581207
v -3.612067 122.096809 -138.581207
v -1.806034 118.968666 -138.581207
v 1.806034 118.968666 -138.581207
v 3.612067 122.096809 -138.581207
vt 0.407937 0.561316
vt 0.376907 0.638472
vt 0.339355 0.618921
vt 0.367054 0.548908
vt 0.331999 0.708389
vt 0.296852 0.683652
vt 0.141971 0.001835
vt 0.217183 0.042505
vt 0.193677 0.078393
vt 0.123110 0.041104
vt 0.283126 0.095875
vt 0.253334 0.126864
vt 0.337577 0.159802
vt 0.302730 0.184840
vt 0.379986 0.232082
vt 0.341315 0.250551
vt 0.409327 0.311058
vt 0.367921 0.322324
vt 0.424093 0.394963
vt 0.381310 0.398092
vt 0.423315 0.479509
vt 0.380815 0.474702
vt 0.302635 0.598598
vt 0.326238 0.536250
vt 0.265777 0.654226
vt 0.171075 0.114909
vt 0.109383 0.083088
vt 0.223438 0.158026
vt 0.267562 0.209823
vt 0.302324 0.268756
vt 0.326307 0.333259
vt 0.338310 0.401162
vt 0.338076 0.469713
vt 0.264759 0.576648
vt 0.283474 0.522448
vt 0.239140 0.623539
vt 0.146960 0.152972
vt 0.101008 0.125619
vt 0.191345 0.189970
vt 0.230199 0.235065
vt 0.261296 0.286742
vt 0.282795 0.343745
vt 0.293535 0.403755
vt 0.293293 0.464001
vt 0.128476 0.534462
vt 0.144330 0.495297
vt 0.104036 0.574338
vt 0.053378 0.256305
vt 0.010190 0.232732
vt 0.087975 0.283211
vt 0.116326 0.312684
vt 0.139292 0.343293
vt 0.153017 0.379186
vt 0.155972 0.417661
vt 0.153332 0.456056
vt 0.094357 0.514169
vt 0.106611 0.483171
vt 0.076160 0.539841
vt 0.032653 0.293485
vt 0.001992 0.280086
vt 0.060122 0.314408
vt 0.083991 0.339675
vt 0.108316 0.359882
vt 0.117770 0.386215
vt 0.114367 0.416124
vt 0.113810 0.449947
vt 0.091188 0.435123
vt 0.053958 0.342432
vt 0.060994 0.436911
vt 0.030949 0.362426
vt 0.035266 0.420594
vt 0.023799 0.392212
vt 0.915757 0.351198
vt 0.888608 0.382920
vt 0.803817 0.350341
vt 0.807053 0.308706
vt 0.716114 0.373848
vt 0.694259 0.338279
vt 0.659005 0.444399
vt 0.620432 0.428472
vt 0.654264 0.535021
vt 0.613702 0.544794
vt 0.703669 0.611116
vt 0.676587 0.642849
vt 0.788354 0.643659
vt 0.785072 0.685247
vt 0.876004 0.620234
vt 0.897778 0.655820
vt 0.933168 0.549757
vt 0.971705 0.565766
vt 0.938000 0.459115
vt 0.978603 0.449417
vt 0.865408 0.409681
vt 0.800822 0.385630
vt 0.734438 0.404146
vt 0.691629 0.458138
vt 0.688731 0.526971
vt 0.726829 0.584354
vt 0.791377 0.608398
vt 0.857734 0.589923
vt 0.900570 0.535961
vt 0.903507 0.467115
vt 0.846052 0.432417
vt 0.798559 0.415397
vt 0.750105 0.429547
vt 0.719228 0.469475
vt 0.717724 0.519931
vt 0.746148 0.561619
vt 0.793664 0.578653
vt 0.842106 0.564514
vt 0.872992 0.524578
vt 0.874495 0.474122
vt 0.815918 0.470115
vt 0.796268 0.463552
vt 0.776529 0.469825
vt 0.764272 0.486492
vt 0.764169 0.507231
vt 0.776231 0.524092
vt 0.795951 0.530654
vt 0.815693 0.524364
vt 0.827933 0.507660
vt 0.828035 0.486971
vt 0.808115 0.292296
vt 0.926273 0.338557
vt 0.685466 0.324394
vt 0.605161 0.422409
vt 0.597787 0.548857
vt 0.666094 0.655483
vt 0.784000 0.701635
vt 0.906537 0.669715
vt 0.986960 0.571866
vt 0.994536 0.445386
vt 0.614797 0.645231
vt 0.624137 0.733218
vt 0.593167 0.724802
vt 0.586925 0.661193
vt 0.568534 0.802024
vt 0.552592 0.774174
vt 0.480578 0.811360
vt 0.488995 0.780395
vt 0.411783 0.755780
vt 0.439626 0.739831
vt 0.402426 0.667835
vt 0.433394 0.676240
vt 0.457992 0.599019
vt 0.473950 0.626860
vt 0.545956 0.589645
vt 0.537550 0.620618
vt 0.513278 0.700513
vt 0.643017 0.629266
vt 0.655376 0.741894
vt 0.584485 0.830244
vt 0.471908 0.842592
vt 0.383572 0.771740
vt 0.371189 0.659179
vt 0.442019 0.570812
vt 0.554610 0.558400
vt 0.660297 0.882151
vt 0.660296 0.852695
vt 0.793022 0.852695
vt 0.793022 0.882151
vt 0.660297 0.823239
vt 0.793022 0.823239
vt 0.660296 0.793782
vt 0.793022 0.793782
vt 0.660297 0.764326
vt 0.793022 0.764326
vt 0.660296 0.734870
vt 0.793022 0.734870
vt 0.660297 0.705414
vt 0.793022 0.705414
vn 0.799057 0.156433 -0.580549
vn 0.305212 0.156433 -0.939348
vn 0.295556 0.291930 -0.909628
vn 0.773776 0.291930 -0.562181
vn -0.305213 0.156434 -0.939347
vn -0.295557 0.291930 -0.909628
vn -0.799057 0.156435 -0.580548
vn -0.773776 0.291930 -0.562181
vn -0.987688 0.156435 0.000000
vn -0.956440 0.291930 0.000000
vn -0.799056 0.156435 0.580549
vn -0.773776 0.291930 0.562181
vn -0.305212 0.156435 0.939348
vn -0.295556 0.291930 0.909628
vn 0.305212 0.156435 0.939347
vn 0.295556 0.291930 0.909628
vn 0.799057 0.156435 0.580549
vn 0.773776 0.291930 0.562181
vn 0.987688 0.156434 -0.000000
vn 0.956440 0.291930 0.000000
vn 0.256443 0.557963 -0.789249
vn 0.671376 0.557962 -0.487783
vn -0.256443 0.557962 -0.789250
vn -0.671376 0.557962 -0.487783
vn -0.829866 0.557962 0.000000
vn -0.671376 0.557962 0.487783
vn -0.256443 0.557962 0.789250
vn 0.256443 0.557962 0.789250
vn 0.671376 0.557962 0.487783
vn 0.829866 0.557962 0.000000
vn 0.218508 0.707106 -0.672499
vn 0.572061 0.707106 -0.415628
vn -0.218508 0.707106 -0.672499
vn -0.572061 0.707107 -0.415628
vn -0.707107 0.707107 0.000000
vn -0.572062 0.707106 0.415628
vn -0.218508 0.707106 0.672499
vn 0.218508 0.707106 0.672499
vn 0.572062 0.707106 0.415627
vn 0.707107 0.707107 -0.000000
vn 0.809017 0.000000 -0.587786
vn 0.309017 0.000000 -0.951057
vn 0.309017 0.000000 -0.951057
vn 0.809017 0.000000 -0.587786
vn -0.309017 0.000000 -0.951057
vn -0.309017 0.000000 -0.951057
vn -0.809017 0.000000 -0.587785
vn -0.809017 0.000000 -0.587785
vn -1.000000 0.000000 0.000000
vn -1.000000 0.000000 0.000000
vn -0.809017 0.000000 0.587785
vn -0.809017 0.000000 0.587785
vn -0.309016 0.000000 0.951057
vn -0.309016 0.000000 0.951057
vn 0.309017 0.000000 0.951057
vn 0.309017 0.000000 0.951057
vn 0.809017 0.000000 0.587785
vn 0.809017 0.000000 0.587785
vn 1.000000 0.000000 0.000000
vn 1.000000 0.000000 0.000000
vn 0.518488 0.767636 -0.376703
vn 0.198044 0.767636 -0.609520
vn 0.198044 0.767636 -0.609520
vn 0.518487 0.767636 -0.376703
vn -0.198044 0.767635 -0.609520
vn -0.198044 0.767635 -0.609520
vn -0.518488 0.767636 -0.376703
vn -0.518487 0.767636 -0.376703
vn -0.640886 0.767636 0.000001
vn -0.640886 0.767636 0.000001
vn -0.518487 0.767637 0.376703
vn -0.518487 0.767637 0.376703
vn -0.198044 0.767637 0.609518
vn -0.198044 0.767637 0.609518
vn 0.198044 0.767636 0.609518
vn 0.198044 0.767636 0.609518
vn 0.518487 0.767637 0.376703
vn 0.518487 0.767637 0.376703
vn 0.640886 0.767636 -0.000001
vn 0.640886 0.767636 -0.000001
vn 0.000000 1.000000 -0.000001
vn 0.000000 1.000000 -0.000001
vn 0.000000 1.000000 0.000002
vn 0.000000 1.000000 0.000002
vn 0.000000 1.000000 -0.000001
vn 0.000000 1.000000 -0.000001
vn 0.000000 1.000000 -0.000000
vn 0.000000 1.000000 -0.000000
vn 0.000000 1.000000 0.000000
vn 0.000000 1.000000 0.000000
vn -0.799056 -0.156435 0.580549
vn -0.773776 -0.291931 0.562181
vn -0.295556 -0.291930 0.909628
vn -0.305212 -0.156434 0.939348
vn 0.295556 -0.291930 0.909628
vn 0.305212 -0.156434 0.939348
vn 0.773776 -0.291930 0.562181
vn 0.799057 -0.156434 0.580548
vn 0.956440 -0.291930 -0.000000
vn 0.987688 -0.156434 0.000000
vn 0.773776 -0.291930 -0.562181
vn 0.799056 -0.156434 -0.580549
vn 0.295556 -0.291930 -0.909628
vn 0.305212 -0.156434 -0.939348
vn -0.295556 -0.291930 -0.909628
vn -0.305212 -0.156434 -0.939348
vn -0.773776 -0.291930 -0.562181
vn -0.799056 -0.156435 -0.580549
vn -0.956440 -0.291930 -0.000000
vn -0.987688 -0.156435 -0.000000
vn -0.671376 -0.557962 0.487783
vn -0.256443 -0.557962 0.789250
vn 0.256443 -0.557962 0.789250
vn 0.671376 -0.557962 0.487783
vn 0.829867 -0.557962 -0.000000
vn 0.671376 -0.557962 -0.487783
vn 0.256443 -0.557962 -0.789250
vn -0.256443 -0.557962 -0.789250
vn -0.671376 -0.557962 -0.487783
vn -0.829867 -0.557962 -0.000000
vn -0.572062 -0.707106 0.415628
vn -0.218508 -0.707106 0.672499
vn 0.218508 -0.707106 0.672499
vn 0.572062 -0.707106 0.415627
vn 0.707107 -0.707107 -0.000000
vn 0.572061 -0.707107 -0.415627
vn 0.218508 -0.707107 -0.672498
vn -0.218508 -0.707106 -0.672499
vn -0.572062 -0.707106 -0.415628
vn -0.707107 -0.707106 -0.000000
vn -0.809017 0.000000 0.587785
vn -0.809017 0.000000 0.587785
vn -0.309017 0.000000 0.951057
vn -0.309017 0.000000 0.951057
vn 0.309017 0.000000 0.951057
vn 0.309017 0.000000 0.951057
vn 0.809017 0.000000 0.587785
vn 0.809017 0.000000 0.587785
vn 1.000000 0.000000 0.000000
vn 1.000000 0.000000 0.000000
vn 0.809017 0.000000 -0.587785
vn 0.809017 0.000000 -0.587785
vn 0.309017 0.000000 -0.951057
vn 0.309017 0.000000 -0.951057
vn -0.309017 0.000000 -0.951057
vn -0.309017 0.000000 -0.951057
vn -0.809017 0.000000 -0.587785
vn -0.809017 0.000000 -0.587785
vn -1.000000 0.000000 0.000000
vn -1.000000 0.000000 0.000000
vn 0.249310 -0.951333 -0.181134
vn 0.095228 -0.951333 -0.293081
vn 0.095228 -0.951333 -0.293081
vn 0.249310 -0.951333 -0.181133
vn -0.095228 -0.951333 -0.293082
vn -0.095228 -0.951333 -0.293082
vn -0.249310 -0.951333 -0.181134
vn -0.249309 -0.951333 -0.181134
vn -0.308163 -0.951334 0.000000
vn -0.308163 -0.951334 0.000000
vn -0.249310 -0.951334 0.181133
vn -0.249310 -0.951334 0.181133
vn -0.095228 -0.951334 0.293079
vn -0.095228 -0.951334 0.293079
vn 0.095228 -0.951334 0.293079
vn 0.095228 -0.951334 0.293079
vn 0.249310 -0.951334 0.181133
vn 0.249310 -0.951334 0.181133
vn 0.308164 -0.951333 0.000000
vn 0.308164 -0.951333 0.000000
vn 0.671116 0.671116 0.314972
vn -0.000000 0.949101 0.314971
vn -0.000000 0.754500 0.656301
vn 0.533512 0.533511 0.656300
vn -0.671116 0.671116 0.314972
vn -0.533512 0.533511 0.656301
vn -0.949101 0.000000 0.314972
vn -0.754500 0.000000 0.656300
vn -0.671116 -0.671116 0.314971
vn -0.533512 -0.533512 0.656300
vn -0.000000 -0.949101 0.314972
vn -0.000000 -0.754499 0.656301
vn 0.671116 -0.671116 0.314972
vn 0.533512 -0.533511 0.656301
vn 0.949101 -0.000000 0.314972
vn 0.754500 -0.000000 0.656300
vn 0.000000 0.000000 1.000000
vn 0.000000 0.000000 1.000000
vn 0.000000 0.000000 1.000000
vn 0.000000 0.000000 1.000000
vn 0.000000 0.000000 1.000000
vn 0.000000 0.000000 1.000000
vn 0.000000 0.000000 1.000000
vn 0.000000 0.000000 1.000000
vn 0.000000 0.000000 1.000000
vn 0.707106 0.707107 0.000000
vn 0.000000 1.000000 0.000000
vn -0.707106 0.707107 0.000000
vn -1.000000 0.000000 0.000000
vn -0.707106 -0.707107 0.000000
vn 0.000000 -1.000000 0.000000
vn 0.707106 -0.707107 0.000000
vn 1.000000 0.000000 0.000000
vn 0.500000 0.866025 0.000000
vn -0.499999 0.866026 0.000000
vn -0.499999 0.866026 0.000000
vn 0.500000 0.866025 0.000000
vn -1.000000 0.000000 0.000000
vn -1.000000 0.000000 0.000000
vn -0.500000 -0.866025 0.000000
vn -0.500000 -0.866025 0.000000
vn 0.500000 -0.866025 0.000000
vn 0.500000 -0.866025 0.000000
vn 1.000000 -0.000000 0.000000
vn 1.000000 -0.000000 0.000000
s 1
g Lamp Lamp Light
usemtl lambert9SG
f 51/1/1 52/2/2 53/3/3 54/4/4
f 52/2/2 55/5/5 56/6/6 53/3/3
f 55/7/5 57/8/7 58/9/8 56/10/6
f 57/8/7 59/11/9 60/12/10 58/9/8
f 59/11/9 61/13/11 62/14/12 60/12/10
f 61/13/11 63/15/13 64/16/14 62/14/12
f 63/15/13 65/17/15 66/18/16 64/16/14
f 65/17/15 67/19/17 68/20/18 66/18/16
f 67/19/17 69/21/19 70/22/20 68/20/18
f 69/21/19 51/1/1 54/4/4 70/22/20
f 54/4/4 53/3/3 71/23/21 72/24/22
f 53/3/3 56/6/6 73/25/23 71/23/21
f 56/10/6 58/9/8 74/26/24 73/27/23
f 58/9/8 60/12/10 75/28/25 74/26/24
f 60/12/10 62/14/12 76/29/26 75/28/25
f 62/14/12 64/16/14 77/30/27 76/29/26
f 64/16/14 66/18/16 78/31/28 77/30/27
f 66/18/16 68/20/18 79/32/29 78/31/28
f 68/20/18 70/22/20 80/33/30 79/32/29
f 70/22/20 54/4/4 72/24/22 80/33/30
f 72/24/22 71/23/21 81/34/31 82/35/32
f 71/23/21 73/25/23 83/36/33 81/34/31
f 73/27/23 74/26/24 84/37/34 83/38/33
f 74/26/24 75/28/25 85/39/35 84/37/34
f 75/28/25 76/29/26 86/40/36 85/39/35
f 76/29/26 77/30/27 87/41/37 86/40/36
f 77/30/27 78/31/28 88/42/38 87/41/37
f 78/31/28 79/32/29 89/43/39 88/42/38
f 79/32/29 80/33/30 90/44/40 89/43/39
f 80/33/30 72/24/22 82/35/32 90/44/40
s 2
f 82/35/41 81/34/42 91/45/43 92/46/44
f 81/34/42 83/36/45 93/47/46 91/45/43
f 83/38/45 84/37/47 94/48/48 93/49/46
f 84/37/47 85/39/49 95/50/50 94/48/48
f 85/39/49 86/40/51 96/51/52 95/50/50
f 86/40/51 87/41/53 97/52/54 96/51/52
f 87/41/53 88/42/55 98/53/56 97/52/54
f 88/42/55 89/43/57 99/54/58 98/53/56
f 89/43/57 90/44/59 100/55/60 99/54/58
f 90/44/59 82/35/41 92/46/44 100/55/60
s 3
f 92/46/61 91/45/62 101/56/63 102/57/64
f 91/45/62 93/47/65 103/58/66 101/56/63
f 93/49/65 94/48/67 104/59/68 103/60/66
f 94/48/67 95/50/69 105/61/70 104/59/68
f 95/50/69 96/51/71 106/62/72 105/61/70
f 96/51/71 97/52/73 107/63/74 106/62/72
f 97/52/73 98/53/75 108/64/76 107/63/74
f 98/53/75 99/54/77 109/65/78 108/64/76
f 99/54/77 100/55/79 110/66/80 109/65/78
f 100/55/79 92/46/61 102/57/64 110/66/80
s 4
f 109/65/81 106/62/82 107/63/83 108/64/84
f 110/67/85 105/68/86 106/62/82 109/65/81
f 102/69/87 104/70/88 105/68/86 110/67/85
f 101/71/89 103/72/90 104/70/88 102/69/87
s 5
f 1/73/91 11/74/92 12/75/93 2/76/94
f 2/76/94 12/75/93 13/77/95 3/78/96
f 3/78/96 13/77/95 14/79/97 4/80/98
f 4/80/98 14/79/97 15/81/99 5/82/100
f 5/82/100 15/81/99 16/83/101 6/84/102
f 6/84/102 16/83/101 17/85/103 7/86/104
f 7/86/104 17/85/103 18/87/105 8/88/106
f 8/88/106 18/87/105 19/89/107 9/90/108
f 9/90/108 19/89/107 20/91/109 10/92/110
f 10/92/110 20/91/109 11/74/92 1/73/91
f 11/74/92 21/93/111 22/94/112 12/75/93
f 12/75/93 22/94/112 23/95/113 13/77/95
f 13/77/95 23/95/113 24/96/114 14/79/97
f 14/79/97 24/96/114 25/97/115 15/81/99
f 15/81/99 25/97/115 26/98/116 16/83/101
f 16/83/101 26/98/116 27/99/117 17/85/103
f 17/85/103 27/99/117 28/100/118 18/87/105
f 18/87/105 28/100/118 29/101/119 19/89/107
f 19/89/107 29/101/119 30/102/120 20/91/109
f 20/91/109 30/102/120 21/93/111 11/74/92
f 21/93/111 31/103/121 32/104/122 22/94/112
f 22/94/112 32/104/122 33/105/123 23/95/113
f 23/95/113 33/105/123 34/106/124 24/96/114
f 24/96/114 34/106/124 35/107/125 25/97/115
f 25/97/115 35/107/125 36/108/126 26/98/116
f 26/98/116 36/108/126 37/109/127 27/99/117
f 27/99/117 37/109/127 38/110/128 28/100/118
f 28/100/118 38/110/128 39/111/129 29/101/119
f 29/101/119 39/111/129 40/112/130 30/102/120
f 30/102/120 40/112/130 31/103/121 21/93/111
s 6
f 31/103/131 41/113/132 42/114/133 32/104/134
f 32/104/134 42/114/133 43/115/135 33/105/136
f 33/105/136 43/115/135 44/116/137 34/106/138
f 34/106/138 44/116/137 45/117/139 35/107/140
f 35/107/140 45/117/139 46/118/141 36/108/142
f 36/108/142 46/118/141 47/119/143 37/109/144
f 37/109/144 47/119/143 48/120/145 38/110/146
f 38/110/146 48/120/145 49/121/147 39/111/148
f 39/111/148 49/121/147 50/122/149 40/112/150
f 40/112/150 50/122/149 41/113/132 31/103/131
s 7
f 1/73/151 2/76/152 52/123/153 51/124/154
f 2/76/152 3/78/155 55/125/156 52/123/153
f 3/78/155 4/80/157 57/126/158 55/125/156
f 4/80/157 5/82/159 59/127/160 57/126/158
f 5/82/159 6/84/161 61/128/162 59/127/160
f 6/84/161 7/86/163 63/129/164 61/128/162
f 7/86/163 8/88/165 65/130/166 63/129/164
f 8/88/165 9/90/167 67/131/168 65/130/166
f 9/90/167 10/92/169 69/132/170 67/131/168
f 10/92/169 1/73/151 51/124/154 69/132/170
s 8
f 111/133/171 112/134/172 120/135/173 119/136/174
f 112/134/172 113/137/175 121/138/176 120/135/173
f 113/137/175 114/139/177 122/140/178 121/138/176
f 114/139/177 115/141/179 123/142/180 122/140/178
f 115/141/179 116/143/181 124/144/182 123/142/180
f 116/143/181 117/145/183 125/146/184 124/144/182
f 117/145/183 118/147/185 126/148/186 125/146/184
f 118/147/185 111/133/171 119/136/174 126/148/186
s 9
f 119/136/187 120/135/188 127/149/189
f 120/135/188 121/138/190 127/149/189
f 121/138/190 122/140/191 127/149/189
f 122/140/191 123/142/192 127/149/189
f 123/142/192 124/144/193 127/149/189
f 124/144/193 125/146/194 127/149/189
f 125/146/194 126/148/195 127/149/189
f 126/148/195 119/136/187 127/149/189
s 8
f 112/134/172 111/133/171 128/150/196 129/151/197
f 113/137/175 112/134/172 129/151/197 130/152/198
f 114/139/177 113/137/175 130/152/198 131/153/199
f 115/141/179 114/139/177 131/153/199 132/154/200
f 116/143/181 115/141/179 132/154/200 133/155/201
f 117/145/183 116/143/181 133/155/201 134/156/202
f 118/147/185 117/145/183 134/156/202 135/157/203
f 111/133/171 118/147/185 135/157/203 128/150/196
s 10
f 136/158/204 137/159/205 143/160/206 142/161/207
f 137/159/205 138/162/208 144/163/209 143/160/206
f 138/162/208 139/164/210 145/165/211 144/163/209
f 139/164/210 140/166/212 146/167/213 145/165/211
f 140/166/212 141/168/214 147/169/215 146/167/213
f 141/168/214 136/170/204 142/171/207 147/169/215
