# This file uses centimeters as units for non-parametric coordinates.

mtllib lightcone.mtl
g default
v 45.657143 -102.611267 -157.954605
v 17.439472 -102.611267 -178.455948
v -17.439486 -102.611267 -178.455933
v -45.657150 -102.611267 -157.954590
v -56.435337 -102.611267 -124.782745
v -45.657143 -102.611267 -91.610886
v -17.439474 -102.611267 -71.109558
v 17.439478 -102.611267 -71.109558
v 45.657143 -102.611267 -91.610893
v 56.435329 -102.611267 -124.782745
v 16.955498 89.024872 -137.101639
v 6.476420 89.024872 -144.715134
v -6.476428 89.024872 -144.715134
v -16.955505 89.024872 -137.101624
v -20.958124 89.024872 -124.782745
v -16.955505 89.024872 -112.463860
v -6.476423 89.024872 -104.850365
v 6.476421 89.024872 -104.850365
v 16.955498 89.024872 -112.463867
v 20.958117 89.024872 -124.782745
vt 0.485412 0.333702
vt 0.467945 0.305833
vt 0.628917 0.217151
vt 0.635403 0.227501
vt 0.453720 0.276177
vt 0.623634 0.206138
vt 0.442916 0.245112
vt 0.619622 0.194602
vt 0.435670 0.213029
vt 0.616930 0.182687
vt 0.432073 0.180336
vt 0.615595 0.170546
vt 0.432171 0.147445
vt 0.615631 0.158332
vt 0.435963 0.114774
vt 0.617040 0.146198
vt 0.443401 0.082735
vt 0.619802 0.134300
vt 0.454391 0.051735
vt 0.623883 0.122788
vt 0.468793 0.022165
vt 0.629231 0.111807
vn 0.795500 0.182035 -0.577964
vn 0.303854 0.182035 -0.935166
vn 0.303854 0.182035 -0.935166
vn 0.795500 0.182035 -0.577964
vn -0.303854 0.182035 -0.935166
vn -0.303854 0.182035 -0.935166
vn -0.795500 0.182035 -0.577964
vn -0.795500 0.182035 -0.577964
vn -0.983292 0.182035 0.000000
vn -0.983292 0.182035 0.000000
vn -0.795500 0.182035 0.577965
vn -0.795500 0.182035 0.577965
vn -0.303854 0.182035 0.935167
vn -0.303854 0.182035 0.935166
vn 0.303854 0.182035 0.935166
vn 0.303854 0.182035 0.935166
vn 0.795500 0.182035 0.577964
vn 0.795500 0.182035 0.577964
vn 0.983292 0.182035 -0.000000
vn 0.983292 0.182035 0.000000
s 1
g Light_cone Light
usemtl lambert9SG
f 1/1/1 2/2/2 12/3/3 11/4/4
f 2/2/2 3/5/5 13/6/6 12/3/3
f 3/5/5 4/7/7 14/8/8 13/6/6
f 4/7/7 5/9/9 15/10/10 14/8/8
f 5/9/9 6/11/11 16/12/12 15/10/10
f 6/11/11 7/13/13 17/14/14 16/12/12
f 7/13/13 8/15/15 18/16/16 17/14/14
f 8/15/15 9/17/17 19/18/18 18/16/16
f 9/17/17 10/19/19 20/20/20 19/18/18
f 10/19/19 1/21/1 11/22/4 20/20/20
