# This file uses centimeters as units for non-parametric coordinates.

mtllib lightcast.mtl
g default
v -12.068906 0.858795 -150.013062
v 12.068906 0.858795 -150.013062
v -14.432904 3.222792 -155.028870
v 14.432904 3.222792 -155.028870
v -14.432904 3.222792 -151.398834
v 14.432904 3.222792 -151.398834
v -18.536722 7.303431 -152.976959
v 18.536722 7.303431 -152.976959
v -18.536722 7.303432 -160.733810
v 18.536722 7.303432 -160.733810
v 45.238178 -99.599136 -157.078247
v 17.279444 -89.360489 -162.386490
v -17.279459 -89.360489 -162.386490
v -45.238190 -99.426147 -156.847565
v -55.917473 -99.599136 -124.782745
v -45.238178 -99.599136 -93.289597
v -17.279444 -99.599136 -71.602081
v 17.279449 -99.599136 -71.602081
v 45.238178 -99.599136 -93.289604
v 55.917465 -99.599136 -124.782745
v -46.446823 -99.599136 -95.635101
v 46.446823 -99.599136 -95.635109
v -45.805023 -100.674629 -94.425560
v 45.805023 -100.674629 -94.425560
v -52.495544 -99.599129 -115.446213
v 52.495541 -99.599136 -115.446213
v -53.709019 -99.599129 -117.985825
v 53.709015 -99.599144 -117.985825
v -53.065166 -100.529800 -116.004257
v 53.065163 -100.529816 -116.004257
v -52.238018 -99.599136 -136.839035
v 52.238010 -99.599136 -136.839050
v -51.127335 -99.599136 -139.525269
v 51.127327 -99.599136 -139.525284
v -51.738251 -100.601997 -137.645050
v 51.738243 -100.601997 -137.645081
v -19.771416 -99.599136 -73.535103
v 19.771423 -99.599136 -73.535103
v -18.494568 -100.922119 -72.544647
v 18.494576 -100.922119 -72.544647
v -45.361057 -99.599136 -156.700104
v 45.361042 -99.599136 -156.700104
v -26.237057 -89.382820 -157.151810
v 26.237041 -89.382820 -157.151810
vt 0.000000 0.000000
vt 1.000000 0.000000
vt 0.000000 1.000000
vt 1.000000 1.000000
vt 0.000000 0.719664
vt 1.000000 0.719664
vt 0.000000 0.000000
vt 1.000000 0.000000
vt 1.000000 1.000000
vt 0.000000 1.000000
vt 0.626409 0.751909
vt 0.373591 0.751909
vt 0.444753 0.700207
vt 0.555247 0.700207
vt 0.573314 0.974167
vt 0.548284 0.992353
vt 0.451716 0.992353
vt 0.426686 0.974167
vt 0.626409 0.935591
vt 0.373591 0.935591
vt 0.373248 0.934535
vt 0.626752 0.934535
vt 0.656250 0.843750
vt 0.343750 0.843750
vt 0.349921 0.824757
vt 0.650079 0.824757
vt 0.629786 0.762303
vt 0.370214 0.762303
vt 0.372007 0.756783
vt 0.627993 0.756783
vt 0.646688 0.814322
vt 0.353312 0.814322
vt 0.351720 0.819220
vt 0.648280 0.819220
vt 0.645968 0.875393
vt 0.354032 0.875393
vt 0.642865 0.884945
vt 0.357135 0.884945
vt 0.355428 0.879691
vt 0.644572 0.879691
vt 0.448321 0.697614
vt 0.551679 0.697614
vt 0.451716 0.695147
vt 0.548284 0.695147
vn 0.000000 0.964361 0.264591
vn 0.000000 0.964361 0.264591
vn 0.000000 1.000000 0.000000
vn 0.000000 1.000000 0.000000
vn 0.000000 0.505715 0.862701
vn 0.000000 0.505715 0.862701
vn 0.000000 1.000000 0.000000
vn 0.000000 1.000000 0.000000
vn 0.000000 1.000000 0.000000
vn 0.000000 1.000000 0.000000
vn -0.000000 0.984245 -0.176812
vn -0.000000 0.984245 -0.176812
vn 0.000000 0.999897 0.014344
vn 0.000000 0.999897 0.014344
vn 0.001630 0.081188 0.996697
vn 0.000000 0.999991 0.004266
vn 0.000000 0.999991 0.004266
vn 0.001630 0.081026 0.996711
vn 0.001721 0.137531 0.990496
vn 0.001728 0.149226 0.988802
vn 0.000011 0.999997 0.002662
vn 0.000013 0.999995 0.003107
vn 0.000000 1.000000 -0.000000
vn 0.000000 1.000000 -0.000000
vn 0.000000 0.997113 0.075939
vn 0.000000 0.997113 0.075939
vn 0.000000 0.999513 0.031198
vn 0.000000 0.999513 0.031198
vn -0.000000 0.977894 0.209104
vn -0.000000 0.977894 0.209104
vn 0.000000 0.997045 -0.076823
vn 0.000000 0.997045 -0.076823
vn 0.000000 0.985852 0.167617
vn 0.000000 0.985852 0.167616
vn -0.000000 0.998783 -0.049312
vn -0.000000 0.998784 -0.049312
vn 0.000000 0.996915 0.078486
vn 0.000000 0.996915 0.078485
vn -0.000000 0.986225 -0.165411
vn -0.000000 0.986225 -0.165411
vn 0.000000 0.859416 0.511278
vn 0.000000 0.859415 0.511278
vn 0.000000 0.580249 -0.814440
vn 0.000000 0.580248 -0.814440
s 1
g Lightcast
usemtl initialShadingGroup
f 5/5/1 6/6/2 4/4/3 3/3/4
f 1/1/5 2/2/6 6/6/2 5/5/1
s off
f 7/7/7 8/8/8 10/9/9 9/10/10
s 2
f 19/11/11 16/12/12 37/13/13 38/14/14
f 44/15/15 12/16/16 13/17/17 43/18/18
f 11/19/19 14/20/20 41/21/21 42/22/22
f 20/23/23 15/24/24 27/25/25 28/26/26
f 22/27/27 21/28/28 23/29/29 24/30/30
f 24/30/30 23/29/29 16/12/12 19/11/11
f 26/31/31 25/32/32 21/28/28 22/27/27
f 28/26/26 27/25/25 29/33/33 30/34/34
f 30/34/34 29/33/33 25/32/32 26/31/31
f 32/35/35 31/36/36 15/24/24 20/23/23
f 34/37/37 33/38/38 35/39/39 36/40/40
f 36/40/40 35/39/39 31/36/36 32/35/35
f 38/14/14 37/13/13 39/41/41 40/42/42
f 40/42/42 39/41/41 17/43/43 18/44/44
f 42/22/22 41/21/21 33/38/38 34/37/37
f 11/19/19 44/15/15 43/18/18 14/20/20
