# This file uses centimeters as units for non-parametric coordinates.

mtllib lightbulb.mtl
g default
v 4.448163 76.828354 -129.893860
v 0.000000 76.828354 -131.736359
v -4.448163 76.828354 -129.893860
v -6.290651 76.828354 -125.445702
v -4.448163 76.828354 -120.997536
v 0.000000 76.828354 -119.155052
v 4.448163 76.828354 -120.997536
v 6.290652 76.828354 -125.445702
v 8.219131 79.874130 -133.664825
v 0.000000 79.874130 -137.069305
v -8.219131 79.874130 -133.664825
v -11.623608 79.874130 -125.445702
v -8.219131 79.874130 -117.226570
v 0.000000 79.874130 -113.822098
v 8.219131 79.874130 -117.226570
v 11.623609 79.874130 -125.445702
v 10.738812 84.432472 -136.184509
v 0.000000 84.432472 -140.632675
v -10.738812 84.432472 -136.184509
v -15.186974 84.432472 -125.445702
v -10.738812 84.432472 -114.706886
v 0.000000 84.432472 -110.258728
v 10.738813 84.432472 -114.706886
v 15.186976 84.432472 -125.445702
v 11.623608 89.809395 -137.069305
v 0.000000 89.809395 -141.883972
v -11.623608 89.809395 -137.069305
v -16.438263 89.809395 -125.445702
v -11.623608 89.809395 -113.822098
v 0.000000 89.809395 -109.007439
v 11.623609 89.809395 -113.822090
v 16.438265 89.809395 -125.445702
v 10.738812 95.186325 -136.184509
v 0.000000 95.186325 -140.632675
v -10.738812 95.186325 -136.184509
v -15.186974 95.186325 -125.445702
v -10.738812 95.186325 -114.706886
v 0.000000 95.186325 -110.258728
v 10.738813 95.186325 -114.706886
v 15.186976 95.186325 -125.445702
v 8.219131 99.744659 -133.664825
v 0.000000 99.744659 -137.069305
v -8.219131 99.744659 -133.664825
v -11.623608 99.744659 -125.445702
v -8.219131 99.744659 -117.226570
v 0.000000 99.744659 -113.822098
v 8.219131 99.744659 -117.226570
v 11.623609 99.744659 -125.445702
v 4.448163 102.790443 -129.893860
v 0.000000 102.790443 -131.736359
v -4.448163 102.790443 -129.893860
v -6.290651 102.790443 -125.445702
v -4.448163 102.790443 -120.997536
v 0.000000 102.790443 -119.155052
v 4.448163 102.790443 -120.997536
v 6.290652 102.790443 -125.445702
v 0.000000 75.758812 -125.445702
v 0.000000 103.859985 -125.445702
vt 0.997460 0.874330
vt 0.972895 0.874330
vt 0.972895 0.849765
vt 0.997460 0.849765
vt 0.948330 0.874330
vt 0.948330 0.849765
vt 0.923766 0.874330
vt 0.923766 0.849765
vt 0.899201 0.874330
vt 0.899201 0.849765
vt 0.874637 0.874330
vt 0.874637 0.849765
vt 0.850072 0.874330
vt 0.850072 0.849765
vt 0.825508 0.874330
vt 0.825508 0.849765
vt 0.800943 0.874330
vt 0.800943 0.849765
vt 0.972895 0.825201
vt 0.997460 0.825201
vt 0.948330 0.825201
vt 0.923766 0.825201
vt 0.899201 0.825201
vt 0.874637 0.825201
vt 0.850072 0.825201
vt 0.825508 0.825201
vt 0.800943 0.825201
vt 0.972895 0.800636
vt 0.997460 0.800636
vt 0.948330 0.800636
vt 0.923766 0.800636
vt 0.899201 0.800636
vt 0.874637 0.800636
vt 0.850072 0.800636
vt 0.825508 0.800636
vt 0.800943 0.800636
vt 0.972895 0.776072
vt 0.997460 0.776072
vt 0.948330 0.776072
vt 0.923766 0.776072
vt 0.899201 0.776072
vt 0.874637 0.776072
vt 0.850072 0.776072
vt 0.825508 0.776072
vt 0.800943 0.776072
vt 0.972895 0.751507
vt 0.997460 0.751507
vt 0.948330 0.751507
vt 0.923766 0.751507
vt 0.899201 0.751507
vt 0.874637 0.751507
vt 0.850072 0.751507
vt 0.825508 0.751507
vt 0.800943 0.751507
vt 0.972895 0.726942
vt 0.997460 0.726942
vt 0.948330 0.726942
vt 0.923766 0.726942
vt 0.899201 0.726942
vt 0.874637 0.726942
vt 0.850072 0.726942
vt 0.825508 0.726942
vt 0.800943 0.726942
vt 0.985177 0.898894
vt 0.960613 0.898894
vt 0.936048 0.898894
vt 0.911484 0.898894
vt 0.886919 0.898894
vt 0.862355 0.898894
vt 0.837790 0.898894
vt 0.813225 0.898894
vt 0.985177 0.702378
vt 0.960613 0.702378
vt 0.936048 0.702378
vt 0.911484 0.702378
vt 0.886919 0.702378
vt 0.862355 0.702378
vt 0.837790 0.702378
vt 0.813225 0.702378
vn 0.310708 -0.898287 -0.310709
vn 0.000000 -0.898287 -0.439409
vn 0.000000 -0.709828 -0.704375
vn 0.498068 -0.709828 -0.498068
vn -0.310708 -0.898288 -0.310709
vn -0.498068 -0.709828 -0.498068
vn -0.439408 -0.898288 -0.000000
vn -0.704375 -0.709828 0.000000
vn -0.310709 -0.898288 0.310708
vn -0.498068 -0.709828 0.498068
vn 0.000000 -0.898287 0.439409
vn 0.000000 -0.709828 0.704375
vn 0.310709 -0.898287 0.310709
vn 0.498068 -0.709828 0.498068
vn 0.439408 -0.898288 0.000000
vn 0.704375 -0.709828 -0.000000
vn 0.000000 -0.397956 -0.917404
vn 0.648703 -0.397956 -0.648703
vn -0.648703 -0.397956 -0.648703
vn -0.917405 -0.397956 0.000000
vn -0.648703 -0.397956 0.648703
vn -0.000000 -0.397956 0.917405
vn 0.648703 -0.397956 0.648703
vn 0.917404 -0.397956 -0.000000
vn 0.000000 0.000000 -1.000000
vn 0.707107 0.000000 -0.707107
vn -0.707107 0.000000 -0.707107
vn -1.000000 -0.000000 0.000000
vn -0.707107 -0.000000 0.707107
vn -0.000000 0.000000 1.000000
vn 0.707107 0.000000 0.707107
vn 1.000000 0.000000 -0.000000
vn -0.000000 0.397957 -0.917404
vn 0.648703 0.397956 -0.648703
vn -0.648703 0.397956 -0.648703
vn -0.917405 0.397956 -0.000000
vn -0.648703 0.397956 0.648703
vn 0.000000 0.397956 0.917405
vn 0.648703 0.397956 0.648703
vn 0.917405 0.397956 -0.000000
vn -0.000000 0.709829 -0.704374
vn 0.498068 0.709828 -0.498068
vn -0.498068 0.709828 -0.498068
vn -0.704375 0.709828 -0.000000
vn -0.498068 0.709829 0.498068
vn 0.000000 0.709829 0.704374
vn 0.498068 0.709828 0.498068
vn 0.704375 0.709828 0.000000
vn 0.000000 0.898287 -0.439409
vn 0.310709 0.898287 -0.310709
vn -0.310709 0.898287 -0.310709
vn -0.439409 0.898287 0.000000
vn -0.310709 0.898287 0.310710
vn 0.000000 0.898287 0.439409
vn 0.310709 0.898287 0.310709
vn 0.439409 0.898287 0.000001
vn -0.000000 -1.000000 0.000000
vn 0.000000 1.000000 0.000000
s 1
g Lightbulb Lamp Light
usemtl lambert9SG
f 1/1/1 2/2/2 10/3/3 9/4/4
f 2/2/2 3/5/5 11/6/6 10/3/3
f 3/5/5 4/7/7 12/8/8 11/6/6
f 4/7/7 5/9/9 13/10/10 12/8/8
f 5/9/9 6/11/11 14/12/12 13/10/10
f 6/11/11 7/13/13 15/14/14 14/12/12
f 7/13/13 8/15/15 16/16/16 15/14/14
f 8/15/15 1/17/1 9/18/4 16/16/16
f 9/4/4 10/3/3 18/19/17 17/20/18
f 10/3/3 11/6/6 19/21/19 18/19/17
f 11/6/6 12/8/8 20/22/20 19/21/19
f 12/8/8 13/10/10 21/23/21 20/22/20
f 13/10/10 14/12/12 22/24/22 21/23/21
f 14/12/12 15/14/14 23/25/23 22/24/22
f 15/14/14 16/16/16 24/26/24 23/25/23
f 16/16/16 9/18/4 17/27/18 24/26/24
f 17/20/18 18/19/17 26/28/25 25/29/26
f 18/19/17 19/21/19 27/30/27 26/28/25
f 19/21/19 20/22/20 28/31/28 27/30/27
f 20/22/20 21/23/21 29/32/29 28/31/28
f 21/23/21 22/24/22 30/33/30 29/32/29
f 22/24/22 23/25/23 31/34/31 30/33/30
f 23/25/23 24/26/24 32/35/32 31/34/31
f 24/26/24 17/27/18 25/36/26 32/35/32
f 25/29/26 26/28/25 34/37/33 33/38/34
f 26/28/25 27/30/27 35/39/35 34/37/33
f 27/30/27 28/31/28 36/40/36 35/39/35
f 28/31/28 29/32/29 37/41/37 36/40/36
f 29/32/29 30/33/30 38/42/38 37/41/37
f 30/33/30 31/34/31 39/43/39 38/42/38
f 31/34/31 32/35/32 40/44/40 39/43/39
f 32/35/32 25/36/26 33/45/34 40/44/40
f 33/38/34 34/37/33 42/46/41 41/47/42
f 34/37/33 35/39/35 43/48/43 42/46/41
f 35/39/35 36/40/36 44/49/44 43/48/43
f 36/40/36 37/41/37 45/50/45 44/49/44
f 37/41/37 38/42/38 46/51/46 45/50/45
f 38/42/38 39/43/39 47/52/47 46/51/46
f 39/43/39 40/44/40 48/53/48 47/52/47
f 40/44/40 33/45/34 41/54/42 48/53/48
f 41/47/42 42/46/41 50/55/49 49/56/50
f 42/46/41 43/48/43 51/57/51 50/55/49
f 43/48/43 44/49/44 52/58/52 51/57/51
f 44/49/44 45/50/45 53/59/53 52/58/52
f 45/50/45 46/51/46 54/60/54 53/59/53
f 46/51/46 47/52/47 55/61/55 54/60/54
f 47/52/47 48/53/48 56/62/56 55/61/55
f 48/53/48 41/54/42 49/63/50 56/62/56
f 2/2/2 1/1/1 57/64/57
f 3/5/5 2/2/2 57/65/57
f 4/7/7 3/5/5 57/66/57
f 5/9/9 4/7/7 57/67/57
f 6/11/11 5/9/9 57/68/57
f 7/13/13 6/11/11 57/69/57
f 8/15/15 7/13/13 57/70/57
f 1/17/1 8/15/15 57/71/57
f 49/56/50 50/55/49 58/72/58
f 50/55/49 51/57/51 58/73/58
f 51/57/51 52/58/52 58/74/58
f 52/58/52 53/59/53 58/75/58
f 53/59/53 54/60/54 58/76/58
f 54/60/54 55/61/55 58/77/58
f 55/61/55 56/62/56 58/78/58
f 56/62/56 49/63/50 58/79/58
